<svg width="620" height="181" viewBox="0 0 620 181" fill="none" xmlns="http://www.w3.org/2000/svg">
<mask id="mask0_1307_12347" style="mask-type:luminance" maskUnits="userSpaceOnUse" x="77" y="8" width="143" height="168">
<path d="M163.771 8.2857H163.856C173.463 8.30285 182.64 12.0407 189.039 18.522C200.446 29.8384 219.711 54.7347 219.711 93.4165C219.711 129.183 203.397 152.622 189.725 165.979C176.036 179.096 152.226 179.096 138.691 166.065C138.434 165.825 138.211 165.568 137.971 165.31L105.206 127.829L123.287 112.037L155.64 149.056C160.1 152.965 168.728 152.862 173.017 148.73C183.309 138.665 195.695 120.833 195.695 93.4165C195.695 65.9997 182.829 46.1959 172.022 35.4795C169.998 33.4391 167.03 32.3075 163.788 32.3075H163.753C160.597 32.3075 157.681 33.3706 155.691 35.2395L115.67 80.7112C122.292 80.7112 127.661 86.0951 127.661 92.7135C127.661 99.3319 122.292 104.716 115.653 104.716H89.1154C84.398 104.716 80.1094 101.955 78.171 97.6516C76.2326 93.3479 76.9873 88.3241 80.0923 84.7748L137.971 19.0364C138.142 18.8477 138.297 18.6763 138.485 18.4877C144.952 11.9893 154.164 8.26855 163.771 8.26855V8.2857Z" fill="white"/>
</mask>
<g mask="url(#mask0_1307_12347)">
<mask id="mask1_1307_12347" style="mask-type:luminance" maskUnits="userSpaceOnUse" x="72" y="3" width="152" height="178">
<path d="M223.999 3.99805H72.8358V180.089H223.999V3.99805Z" fill="white"/>
</mask>
<g mask="url(#mask1_1307_12347)">
<rect x="72.6986" y="3.41553" width="151.506" height="176.949" fill="url(#paint0_radial_1307_12347)"/>
</g>
</g>
<mask id="mask2_1307_12347" style="mask-type:luminance" maskUnits="userSpaceOnUse" x="4" y="9" width="143" height="168">
<path d="M60.2288 176.713H60.143C50.5366 176.695 41.3591 172.958 34.9606 166.476C23.553 155.16 4.28882 130.264 4.28882 91.5818C4.28882 55.8321 20.6025 32.3932 34.2744 19.0364C47.9635 5.91952 71.7736 5.91952 85.3083 18.9506C85.5656 19.1907 85.7886 19.4479 86.0287 19.7051L118.793 57.1866L100.713 72.9782L68.3599 35.9596C63.8998 32.0503 55.2712 32.1532 50.9826 36.2854C40.6901 46.3502 28.3047 64.1822 28.3047 91.599C28.3047 119.016 41.1704 138.82 51.9776 149.536C54.0018 151.576 56.9695 152.708 60.2116 152.708H60.2459C63.4023 152.708 66.3185 151.645 68.3084 149.776L108.329 104.304C101.708 104.304 96.3384 98.9204 96.3384 92.302C96.3384 85.6836 101.708 80.2997 108.346 80.2997H134.884C139.601 80.2997 143.89 83.0602 145.828 87.3639C147.767 91.6676 147.012 96.6914 143.907 100.241L86.063 165.979C85.8915 166.168 85.7371 166.339 85.5484 166.528C79.0813 173.026 69.8695 176.747 60.2631 176.747L60.2288 176.713Z" fill="white"/>
</mask>
<g mask="url(#mask2_1307_12347)">
<mask id="mask3_1307_12347" style="mask-type:luminance" maskUnits="userSpaceOnUse" x="-1" y="4" width="153" height="177">
<path d="M151.163 4.90723H-0.000610352V180.998H151.163V4.90723Z" fill="white"/>
</mask>
<g mask="url(#mask3_1307_12347)">
<rect x="-0.583618" y="4.23926" width="152.33" height="176.949" fill="url(#paint1_radial_1307_12347)"/>
</g>
</g>
<path d="M266.607 162.265C266.607 163.37 267.503 164.265 268.607 164.265H283.574C284.678 164.265 285.574 163.37 285.574 162.265V109.51C285.574 108.405 286.469 107.51 287.574 107.51H300.672C301.777 107.51 302.672 106.614 302.672 105.51V92.986C302.672 91.8814 301.777 90.986 300.672 90.986H287.574C286.469 90.986 285.574 90.0906 285.574 88.986V84.9513C285.574 78.6292 289.022 74.8934 294.913 74.8934C296.315 74.8934 298.909 74.8934 300.721 74.8934C301.825 74.8934 302.719 73.9979 302.719 72.8934V59.2202C302.719 58.1156 301.826 57.2202 300.721 57.2202C298.99 57.2202 296.221 57.2202 292.758 57.2202C275.516 57.2202 266.607 66.416 266.607 84.3765V88.986C266.607 90.0906 265.712 90.986 264.607 90.986H256.107C255.002 90.986 254.107 91.8814 254.107 92.986V105.51C254.107 106.614 255.002 107.51 256.107 107.51H264.607C265.712 107.51 266.607 108.405 266.607 109.51V162.265Z" fill="white"/>
<path d="M387.094 127.625C387.094 106.36 370.251 88.8307 345.282 88.8307C325.35 88.8307 307.206 106.073 307.206 127.625C307.206 149.178 324.161 166.42 345.282 166.42C352.798 166.42 359.819 164.241 365.686 160.376C367.107 159.44 369.134 160.404 369.134 162.106V162.265C369.134 163.37 370.029 164.265 371.134 164.265H385.094C386.199 164.265 387.094 163.379 387.094 162.275C387.094 157.305 387.094 143.598 387.094 127.625ZM327.178 127.625C327.178 115.556 336.23 106.36 347.725 106.36C359.076 106.36 368.128 115.556 368.128 127.625C368.128 139.695 359.076 148.891 347.725 148.891C336.23 148.891 327.178 139.695 327.178 127.625Z" fill="white"/>
<path d="M405.218 164.42C405.218 165.525 406.108 166.42 407.213 166.42C410.292 166.42 416.628 166.42 424.04 166.42C440.277 166.42 450.765 156.937 450.765 143C450.765 132.942 445.449 126.907 431.799 121.016L429.5 120.01C420.448 116.131 418.005 113.975 418.005 110.814C418.005 107.079 421.167 104.923 426.627 104.923C430.184 104.923 435.756 104.923 438.711 104.923C439.816 104.923 440.708 104.028 440.708 102.923V90.8307C440.708 89.7262 439.816 88.8307 438.711 88.8307C436.099 88.8307 431.178 88.8307 425.477 88.8307C409.241 88.8307 398.321 98.4576 398.321 111.964C398.321 121.878 404.355 128.2 417.431 133.66L420.592 134.953C428.638 138.402 430.793 140.413 430.793 143.862C430.793 148.029 427.776 150.328 422.46 150.328C418.491 150.328 410.84 150.328 407.215 150.328C406.111 150.328 405.218 151.223 405.218 152.328V164.42Z" fill="white"/>
<path d="M457.964 105.51C457.964 106.614 458.86 107.51 459.964 107.51H469.183C470.288 107.51 471.183 108.405 471.183 109.51V162.265C471.183 163.37 472.079 164.265 473.183 164.265H488.15C489.254 164.265 490.15 163.37 490.15 162.265V109.51C490.15 108.405 491.045 107.51 492.15 107.51H504.53C505.634 107.51 506.53 106.614 506.53 105.51V92.986C506.53 91.8814 505.634 90.986 504.53 90.986H492.15C491.045 90.986 490.15 90.0906 490.15 88.986V72.9134C490.15 71.5521 488.819 70.5886 487.526 71.0132L472.559 75.9263C471.738 76.1959 471.183 76.9623 471.183 77.8266V88.986C471.183 90.0906 470.288 90.986 469.183 90.986H459.964C458.86 90.986 457.964 91.8814 457.964 92.986V105.51Z" fill="white"/>
<path d="M588.109 145.326C588.589 144.362 588.152 143.208 587.18 142.745L573.435 136.211C572.351 135.695 571.066 136.251 570.561 137.341C567.312 144.351 560.276 148.891 552.284 148.891C540.789 148.891 531.737 139.551 531.737 127.625C531.737 115.7 540.789 106.36 552.284 106.36C559.432 106.36 565.639 109.886 569.098 115.663C569.696 116.66 570.968 117.09 571.987 116.529L585.308 109.191C586.274 108.659 586.631 107.441 586.048 106.506C579.16 95.4651 566.502 88.8307 552.284 88.8307C529.726 88.8307 511.765 106.073 511.765 127.625C511.765 149.178 529.726 166.42 552.428 166.42C567.973 166.42 581.675 158.254 588.109 145.326Z" fill="white"/>
<path d="M594 69.2897C594 75.8992 600.325 80.7844 607.078 80.7844C613.975 80.7844 619.435 75.7555 619.435 69.2897C619.435 62.6802 613.975 57.795 607.078 57.795C600.325 57.795 594 62.6802 594 69.2897ZM597.739 162.265C597.739 163.37 598.634 164.265 599.739 164.265H614.705C615.81 164.265 616.705 163.37 616.705 162.265V93.6819C616.705 92.3398 615.409 91.3786 614.125 91.7678L599.159 96.3031C598.315 96.5586 597.739 97.336 597.739 98.2171V162.265Z" fill="white"/>
<rect x="581" y="57.8003" width="28" height="4" rx="2" fill="white"/>
<rect x="564.104" y="67.0527" width="39.8415" height="4.38915" rx="2" fill="white"/>
<rect x="576" y="76.6602" width="34" height="4.08989" rx="2" fill="white"/>
<path d="M259.757 49.498C258.78 49.498 257.926 49.4411 257.193 49.3271C256.445 49.2295 255.81 49.1074 255.289 48.9609V42.6621C255.81 42.776 256.371 42.8818 256.974 42.9795C257.56 43.0934 258.186 43.1504 258.854 43.1504C259.732 43.1504 260.522 42.9795 261.222 42.6377C261.922 42.3122 262.475 41.6855 262.882 40.7578C263.289 39.8301 263.492 38.4954 263.492 36.7539V3.30664H271.061V36.7051C271.061 39.765 270.58 42.2308 269.62 44.1025C268.676 45.9906 267.35 47.3577 265.641 48.2041C263.948 49.0667 261.987 49.498 259.757 49.498ZM287.491 39H280.045V3.30664H300.504V9.50781H287.491V18.7119H299.601V24.8887H287.491V39ZM322.135 11.1924C322.509 11.1924 322.94 11.2168 323.429 11.2656C323.933 11.2982 324.34 11.347 324.649 11.4121L324.088 18.3945C323.844 18.3132 323.494 18.2562 323.038 18.2236C322.599 18.1748 322.216 18.1504 321.891 18.1504C320.93 18.1504 319.994 18.2725 319.083 18.5166C318.188 18.7607 317.382 19.1595 316.666 19.7129C315.95 20.25 315.38 20.9661 314.957 21.8613C314.55 22.7402 314.347 23.8226 314.347 25.1084V39H306.9V11.7051H312.54L313.639 16.2949H314.005C314.542 15.3672 315.209 14.5208 316.007 13.7559C316.821 12.9746 317.74 12.3561 318.766 11.9004C319.807 11.4284 320.93 11.1924 322.135 11.1924ZM354.41 25.3037C354.41 27.5824 354.101 29.6006 353.482 31.3584C352.88 33.1162 351.993 34.6055 350.821 35.8262C349.666 37.0306 348.266 37.9421 346.622 38.5605C344.994 39.179 343.155 39.4883 341.104 39.4883C339.184 39.4883 337.418 39.179 335.807 38.5605C334.212 37.9421 332.82 37.0306 331.632 35.8262C330.46 34.6055 329.549 33.1162 328.897 31.3584C328.263 29.6006 327.945 27.5824 327.945 25.3037C327.945 22.2764 328.482 19.7129 329.557 17.6133C330.631 15.5137 332.161 13.9186 334.146 12.8281C336.132 11.7376 338.5 11.1924 341.251 11.1924C343.806 11.1924 346.069 11.7376 348.038 12.8281C350.024 13.9186 351.578 15.5137 352.701 17.6133C353.84 19.7129 354.41 22.2764 354.41 25.3037ZM335.538 25.3037C335.538 27.0941 335.733 28.5996 336.124 29.8203C336.515 31.041 337.125 31.9606 337.955 32.5791C338.785 33.1976 339.868 33.5068 341.202 33.5068C342.521 33.5068 343.587 33.1976 344.4 32.5791C345.23 31.9606 345.833 31.041 346.207 29.8203C346.598 28.5996 346.793 27.0941 346.793 25.3037C346.793 23.4971 346.598 21.9997 346.207 20.8115C345.833 19.6071 345.23 18.7038 344.4 18.1016C343.57 17.4993 342.488 17.1982 341.153 17.1982C339.184 17.1982 337.752 17.8737 336.856 19.2246C335.978 20.5755 335.538 22.6019 335.538 25.3037ZM368.546 51.0117C364.737 51.0117 361.824 50.3444 359.806 49.0098C357.804 47.6914 356.803 45.8359 356.803 43.4434C356.803 41.7995 357.315 40.4242 358.341 39.3174C359.366 38.2106 360.872 37.4212 362.857 36.9492C362.092 36.6237 361.425 36.0947 360.855 35.3623C360.286 34.6136 360.001 33.8242 360.001 32.9941C360.001 31.9525 360.302 31.0898 360.904 30.4062C361.507 29.7064 362.377 29.0228 363.517 28.3555C362.084 27.737 360.945 26.7441 360.099 25.377C359.269 24.0098 358.854 22.3984 358.854 20.543C358.854 18.5573 359.285 16.8727 360.147 15.4893C361.026 14.0895 362.296 13.0234 363.956 12.291C365.632 11.5586 367.667 11.1924 370.06 11.1924C370.564 11.1924 371.15 11.2249 371.817 11.29C372.485 11.3551 373.095 11.4284 373.648 11.5098C374.218 11.5911 374.601 11.6562 374.796 11.7051H384.317V15.4893L380.045 16.5879C380.436 17.1901 380.729 17.833 380.924 18.5166C381.119 19.2002 381.217 19.9245 381.217 20.6895C381.217 23.6191 380.191 25.9059 378.141 27.5498C376.106 29.1774 373.274 29.9912 369.645 29.9912C368.782 29.9424 367.968 29.8773 367.203 29.7959C366.829 30.0889 366.544 30.3981 366.349 30.7236C366.153 31.0492 366.056 31.391 366.056 31.749C366.056 32.1071 366.202 32.4082 366.495 32.6523C366.804 32.8802 367.26 33.0592 367.862 33.1895C368.481 33.3034 369.246 33.3604 370.157 33.3604H374.796C377.791 33.3604 380.069 34.0033 381.632 35.2891C383.211 36.5749 384 38.4629 384 40.9531C384 44.1432 382.665 46.6172 379.996 48.375C377.343 50.1328 373.526 51.0117 368.546 51.0117ZM368.863 46.1533C370.637 46.1533 372.159 45.9824 373.429 45.6406C374.715 45.3151 375.699 44.8431 376.383 44.2246C377.066 43.6224 377.408 42.8981 377.408 42.0518C377.408 41.3682 377.205 40.8229 376.798 40.416C376.407 40.0254 375.805 39.7487 374.991 39.5859C374.194 39.4232 373.168 39.3418 371.915 39.3418H368.058C367.146 39.3418 366.324 39.4883 365.592 39.7812C364.876 40.0742 364.306 40.4811 363.883 41.002C363.46 41.5391 363.248 42.1576 363.248 42.8574C363.248 43.8828 363.736 44.6885 364.713 45.2744C365.706 45.8604 367.089 46.1533 368.863 46.1533ZM370.06 25.4502C371.459 25.4502 372.485 25.0189 373.136 24.1562C373.787 23.2936 374.112 22.1217 374.112 20.6406C374.112 18.9967 373.771 17.7679 373.087 16.9541C372.42 16.124 371.41 15.709 370.06 15.709C368.692 15.709 367.667 16.124 366.983 16.9541C366.3 17.7679 365.958 18.9967 365.958 20.6406C365.958 22.1217 366.292 23.2936 366.959 24.1562C367.643 25.0189 368.676 25.4502 370.06 25.4502Z" fill="#40BE46"/>
<defs>
<radialGradient id="paint0_radial_1307_12347" cx="0" cy="0" r="1" gradientTransform="matrix(26.5891 29.1485 -70.7606 65.1873 122.652 131.737)" gradientUnits="userSpaceOnUse">
<stop stop-color="#40BE46" stop-opacity="0"/>
<stop offset="0.145095" stop-color="#40BE46" stop-opacity="0.15"/>
<stop offset="0.867238" stop-color="#40BE46"/>
</radialGradient>
<radialGradient id="paint1_radial_1307_12347" cx="0" cy="0" r="1" gradientTransform="matrix(-27.4468 -30.0058 73.2486 -66.9387 97.7789 53.7229)" gradientUnits="userSpaceOnUse">
<stop stop-color="#40BE46" stop-opacity="0"/>
<stop offset="0.133024" stop-color="#40BE46" stop-opacity="0.15"/>
<stop offset="0.867238" stop-color="#40BE46"/>
</radialGradient>
</defs>
</svg>
