<svg width="580" height="138" viewBox="0 0 580 138" fill="none" xmlns="http://www.w3.org/2000/svg">
<mask id="mask0_1307_12347" style="mask-type:luminance" maskUnits="userSpaceOnUse" x="69" y="3" width="112" height="131">
<path d="M137.293 3.33267H137.359C144.826 3.346 151.959 6.25267 156.933 11.2927C165.799 20.0927 180.773 39.4527 180.773 69.5327C180.773 97.346 168.093 115.573 157.466 125.959C146.826 136.159 128.319 136.159 117.799 126.026C117.599 125.839 117.426 125.639 117.239 125.439L91.7726 96.2927L105.826 84.0127L130.973 112.799C134.439 115.839 141.146 115.759 144.479 112.546C152.479 104.719 162.106 90.8527 162.106 69.5327C162.106 48.2127 152.106 32.8127 143.706 24.4793C142.133 22.8927 139.826 22.0127 137.306 22.0127H137.279C134.826 22.0127 132.559 22.8393 131.013 24.2927L99.906 59.6527C105.053 59.6527 109.226 63.8393 109.226 68.986C109.226 74.1327 105.053 78.3193 99.8926 78.3193H79.266C75.5993 78.3193 72.266 76.1727 70.7593 72.826C69.2526 69.4793 69.8393 65.5727 72.2526 62.8127L117.239 11.6927C117.373 11.546 117.493 11.4127 117.639 11.266C122.666 6.21267 129.826 3.31934 137.293 3.31934V3.33267Z" fill="white"/>
</mask>
<g mask="url(#mask0_1307_12347)">
<mask id="mask1_1307_12347" style="mask-type:luminance" maskUnits="userSpaceOnUse" x="66" y="-1" width="119" height="138">
<path d="M184.106 -0.00146484H66.6124V136.932H184.106V-0.00146484Z" fill="white"/>
</mask>
<g mask="url(#mask1_1307_12347)">
<rect x="66.5059" y="-0.45459" width="117.76" height="137.6" fill="url(#paint0_radial_1307_12347)"/>
</g>
</g>
<mask id="mask2_1307_12347" style="mask-type:luminance" maskUnits="userSpaceOnUse" x="13" y="4" width="112" height="131">
<path d="M56.8135 134.306H56.7468C49.2802 134.293 42.1468 131.386 37.1735 126.346C28.3068 117.546 13.3335 98.1859 13.3335 68.1059C13.3335 40.3059 26.0135 22.0792 36.6402 11.6925C47.2802 1.49253 65.7868 1.49253 76.3068 11.6259C76.5068 11.8125 76.6802 12.0125 76.8668 12.2125L102.333 41.3592L88.2802 53.6392L63.1335 24.8525C59.6668 21.8125 52.9602 21.8925 49.6268 25.1059C41.6268 32.9325 32.0002 46.7992 32.0002 68.1192C32.0002 89.4392 42.0002 104.839 50.4002 113.173C51.9735 114.759 54.2802 115.639 56.8002 115.639H56.8268C59.2802 115.639 61.5468 114.813 63.0935 113.359L94.2002 77.9992C89.0535 77.9992 84.8802 73.8125 84.8802 68.6659C84.8802 63.5192 89.0535 59.3325 94.2135 59.3325H114.84C118.507 59.3325 121.84 61.4792 123.347 64.8259C124.854 68.1725 124.267 72.0792 121.853 74.8392L76.8935 125.959C76.7602 126.106 76.6402 126.239 76.4935 126.386C71.4668 131.439 64.3068 134.333 56.8402 134.333L56.8135 134.306Z" fill="white"/>
</mask>
<g mask="url(#mask2_1307_12347)">
<mask id="mask3_1307_12347" style="mask-type:luminance" maskUnits="userSpaceOnUse" x="9" y="0" width="119" height="138">
<path d="M127.493 0.705566H9.99951V137.639H127.493V0.705566Z" fill="white"/>
</mask>
<g mask="url(#mask3_1307_12347)">
<rect x="9.54639" y="0.186035" width="118.4" height="137.6" fill="url(#paint1_radial_1307_12347)"/>
</g>
</g>
<path d="M226.607 119.265C226.607 120.37 227.503 121.265 228.607 121.265H243.574C244.678 121.265 245.574 120.37 245.574 119.265V66.5097C245.574 65.4051 246.469 64.5097 247.574 64.5097H260.672C261.777 64.5097 262.672 63.6143 262.672 62.5097V49.986C262.672 48.8814 261.777 47.986 260.672 47.986H247.574C246.469 47.986 245.574 47.0906 245.574 45.986V41.9513C245.574 35.6292 249.022 31.8934 254.913 31.8934C256.315 31.8934 258.909 31.8934 260.721 31.8934C261.825 31.8934 262.719 30.9979 262.719 29.8934V16.2202C262.719 15.1156 261.826 14.2202 260.721 14.2202C258.99 14.2202 256.221 14.2202 252.758 14.2202C235.516 14.2202 226.607 23.416 226.607 41.3765V45.986C226.607 47.0906 225.712 47.986 224.607 47.986H216.107C215.002 47.986 214.107 48.8814 214.107 49.986V62.5097C214.107 63.6143 215.002 64.5097 216.107 64.5097H224.607C225.712 64.5097 226.607 65.4051 226.607 66.5097V119.265Z" fill="white"/>
<path d="M347.094 84.6255C347.094 63.3602 330.251 45.8307 305.282 45.8307C285.35 45.8307 267.206 63.0729 267.206 84.6255C267.206 106.178 284.161 123.42 305.282 123.42C312.798 123.42 319.819 121.241 325.686 117.376C327.107 116.44 329.134 117.404 329.134 119.106V119.265C329.134 120.37 330.029 121.265 331.134 121.265H345.094C346.199 121.265 347.094 120.379 347.094 119.275C347.094 114.305 347.094 100.598 347.094 84.6255ZM287.178 84.6255C287.178 72.556 296.23 63.3602 307.725 63.3602C319.076 63.3602 328.128 72.556 328.128 84.6255C328.128 96.695 319.076 105.891 307.725 105.891C296.23 105.891 287.178 96.695 287.178 84.6255Z" fill="white"/>
<path d="M365.218 121.42C365.218 122.525 366.108 123.42 367.213 123.42C370.292 123.42 376.628 123.42 384.04 123.42C400.277 123.42 410.765 113.937 410.765 99.9997C410.765 89.9418 405.449 83.9071 391.799 78.016L389.5 77.0102C380.448 73.1308 378.005 70.9755 378.005 67.8144C378.005 64.0786 381.167 61.9234 386.627 61.9234C390.184 61.9234 395.756 61.9234 398.711 61.9234C399.816 61.9234 400.708 61.0279 400.708 59.9234V47.8307C400.708 46.7262 399.816 45.8307 398.711 45.8307C396.099 45.8307 391.178 45.8307 385.477 45.8307C369.241 45.8307 358.321 55.4576 358.321 68.9639C358.321 78.8781 364.355 85.2002 377.431 90.6602L380.592 91.9534C388.638 95.4018 390.793 97.4134 390.793 100.862C390.793 105.029 387.776 107.328 382.46 107.328C378.491 107.328 370.84 107.328 367.215 107.328C366.111 107.328 365.218 108.223 365.218 109.328V121.42Z" fill="white"/>
<path d="M417.964 62.5097C417.964 63.6143 418.86 64.5097 419.964 64.5097H429.183C430.288 64.5097 431.183 65.4051 431.183 66.5097V119.265C431.183 120.37 432.079 121.265 433.183 121.265H448.15C449.254 121.265 450.15 120.37 450.15 119.265V66.5097C450.15 65.4051 451.045 64.5097 452.15 64.5097H464.53C465.634 64.5097 466.53 63.6143 466.53 62.5097V49.986C466.53 48.8814 465.634 47.986 464.53 47.986H452.15C451.045 47.986 450.15 47.0906 450.15 45.986V29.9134C450.15 28.5521 448.819 27.5886 447.526 28.0132L432.559 32.9263C431.738 33.1959 431.183 33.9623 431.183 34.8266V45.986C431.183 47.0906 430.288 47.986 429.183 47.986H419.964C418.86 47.986 417.964 48.8814 417.964 49.986V62.5097Z" fill="white"/>
<path d="M548.109 102.326C548.589 101.362 548.152 100.208 547.18 99.7454L533.435 93.2112C532.351 92.6955 531.066 93.2512 530.561 94.3411C527.312 101.351 520.276 105.891 512.284 105.891C500.789 105.891 491.737 96.5513 491.737 84.6255C491.737 72.6997 500.789 63.3602 512.284 63.3602C519.432 63.3602 525.639 66.8864 529.098 72.6629C529.696 73.6604 530.968 74.0897 531.987 73.5287L545.308 66.1907C546.274 65.6587 546.631 64.4413 546.048 63.5058C539.16 52.4651 526.502 45.8307 512.284 45.8307C489.726 45.8307 471.765 63.0729 471.765 84.6255C471.765 106.178 489.726 123.42 512.428 123.42C527.973 123.42 541.675 115.254 548.109 102.326Z" fill="white"/>
<path d="M554 26.2897C554 32.8992 560.325 37.7844 567.078 37.7844C573.975 37.7844 579.435 32.7555 579.435 26.2897C579.435 19.6802 573.975 14.795 567.078 14.795C560.325 14.795 554 19.6802 554 26.2897ZM557.739 119.265C557.739 120.37 558.634 121.265 559.739 121.265H574.705C575.81 121.265 576.705 120.37 576.705 119.265V50.6819C576.705 49.3398 575.409 48.3786 574.125 48.7678L559.159 53.3031C558.315 53.5586 557.739 54.336 557.739 55.2171V119.265Z" fill="white"/>
<rect x="541" y="14.8003" width="28" height="4" rx="2" fill="white"/>
<rect x="524.104" y="24.0527" width="39.8415" height="4.38915" rx="2" fill="white"/>
<rect x="536" y="33.6602" width="34" height="4.08989" rx="2" fill="white"/>
<defs>
<radialGradient id="paint0_radial_1307_12347" cx="0" cy="0" r="1" gradientTransform="matrix(20.6667 22.6667 -54.9995 50.6914 105.333 99.3319)" gradientUnits="userSpaceOnUse">
<stop stop-color="#40BE46" stop-opacity="0"/>
<stop offset="0.145095" stop-color="#40BE46" stop-opacity="0.15"/>
<stop offset="0.867238" stop-color="#40BE46"/>
</radialGradient>
<radialGradient id="paint1_radial_1307_12347" cx="0" cy="0" r="1" gradientUnits="userSpaceOnUse" gradientTransform="translate(85.9998 38.6659) rotate(-132.436) scale(31.6158 77.1425)">
<stop stop-color="#40BE46" stop-opacity="0"/>
<stop offset="0.133024" stop-color="#40BE46" stop-opacity="0.15"/>
<stop offset="0.867238" stop-color="#40BE46"/>
</radialGradient>
</defs>
</svg>
