<svg width="400" height="400" viewBox="0 0 400 400" fill="none" xmlns="http://www.w3.org/2000/svg">
<rect width="400" height="400" fill="#17191E"/>
<mask id="mask0_1440_9864" style="mask-type:luminance" maskUnits="userSpaceOnUse" x="73" y="154" width="78" height="93">
<path d="M120.282 154.532H120.328C125.565 154.541 130.568 156.586 134.057 160.131C140.275 166.32 150.778 179.938 150.778 201.095C150.778 220.658 141.884 233.478 134.431 240.784C126.968 247.959 113.988 247.959 106.609 240.831C106.469 240.7 106.347 240.559 106.216 240.418L88.3543 219.918L98.2114 211.28L115.849 231.528C118.28 233.666 122.984 233.61 125.322 231.35C130.933 225.844 137.685 216.091 137.685 201.095C137.685 186.099 130.671 175.267 124.78 169.406C123.676 168.29 122.058 167.671 120.291 167.671H120.272C118.551 167.671 116.962 168.252 115.877 169.275L94.0589 194.146C97.6689 194.146 100.596 197.091 100.596 200.711C100.596 204.331 97.6689 207.276 94.0496 207.276H79.5823C77.0106 207.276 74.6726 205.765 73.6159 203.412C72.5591 201.058 72.9705 198.31 74.6633 196.369L106.216 160.412C106.31 160.309 106.394 160.215 106.497 160.112C110.022 156.558 115.044 154.523 120.282 154.523V154.532Z" fill="white"/>
</mask>
<g mask="url(#mask0_1440_9864)">
<mask id="mask1_1440_9864" style="mask-type:luminance" maskUnits="userSpaceOnUse" x="70" y="152" width="84" height="97">
<path d="M153.116 152.187H70.7073V248.502H153.116V152.187Z" fill="white"/>
</mask>
<g mask="url(#mask1_1440_9864)">
<path d="M153.228 151.868H70.6326V248.652H153.228V151.868Z" fill="url(#paint0_radial_1440_9864)"/>
</g>
</g>
<mask id="mask2_1440_9864" style="mask-type:luminance" maskUnits="userSpaceOnUse" x="33" y="155" width="79" height="92">
<path d="M63.8344 246.655H63.7877C58.5506 246.645 53.5474 244.601 50.0592 241.056C43.8402 234.867 33.3381 221.249 33.3381 200.092C33.3381 180.538 42.2317 167.718 49.6851 160.412C57.1479 153.238 70.1282 153.238 77.5068 160.365C77.6471 160.497 77.7687 160.637 77.8996 160.778L95.7614 181.279L85.9049 189.916L68.2672 169.669C65.8357 167.53 61.1318 167.587 58.7938 169.847C53.1827 175.352 46.4307 185.105 46.4307 200.101C46.4307 215.097 53.4445 225.929 59.3362 231.79C60.4397 232.906 62.0576 233.525 63.8251 233.525H63.8438C65.5645 233.525 67.1543 232.944 68.2391 231.922L90.0568 207.05C86.4473 207.05 83.52 204.106 83.52 200.486C83.52 196.866 86.4473 193.921 90.0661 193.921H104.534C107.105 193.921 109.443 195.431 110.5 197.785C111.557 200.139 111.145 202.886 109.453 204.828L77.9183 240.784C77.8248 240.888 77.7406 240.981 77.6377 241.084C74.1121 244.639 69.0902 246.674 63.8531 246.674L63.8344 246.655Z" fill="white"/>
</mask>
<g mask="url(#mask2_1440_9864)">
<mask id="mask3_1440_9864" style="mask-type:luminance" maskUnits="userSpaceOnUse" x="30" y="152" width="84" height="97">
<path d="M113.408 152.684H30.9998V248.999H113.408V152.684Z" fill="white"/>
</mask>
<g mask="url(#mask3_1440_9864)">
<path d="M113.726 152.319H30.6819V249.103H113.726V152.319Z" fill="url(#paint1_radial_1440_9864)"/>
</g>
</g>
<path d="M176.344 238.753C176.344 239.357 176.832 239.847 177.434 239.847H185.594C186.195 239.847 186.684 239.357 186.684 238.753V209.898C186.684 209.293 187.172 208.804 187.774 208.804H194.915C195.517 208.804 196.005 208.314 196.005 207.71V200.86C196.005 200.256 195.517 199.766 194.915 199.766H187.774C187.172 199.766 186.684 199.276 186.684 198.672V196.465C186.684 193.007 188.564 190.964 191.775 190.964C192.539 190.964 193.954 190.964 194.941 190.964C195.543 190.964 196.031 190.474 196.031 189.87V182.391C196.031 181.787 195.544 181.297 194.941 181.297C193.998 181.297 192.488 181.297 190.6 181.297C181.201 181.297 176.344 186.327 176.344 196.151V198.672C176.344 199.276 175.856 199.766 175.253 199.766H170.62C170.017 199.766 169.529 200.256 169.529 200.86V207.71C169.529 208.314 170.017 208.804 170.62 208.804H175.253C175.856 208.804 176.344 209.293 176.344 209.898V238.753Z" fill="white"/>
<path d="M242.029 219.806C242.029 208.175 232.847 198.587 219.234 198.587C208.368 198.587 198.477 208.018 198.477 219.806C198.477 231.595 207.72 241.025 219.234 241.025C223.332 241.025 227.159 239.833 230.358 237.719C231.133 237.208 232.238 237.735 232.238 238.666V238.753C232.238 239.357 232.725 239.847 233.328 239.847H240.938C241.541 239.847 242.029 239.362 242.029 238.758C242.029 236.04 242.029 228.543 242.029 219.806ZM209.365 219.806C209.365 213.205 214.3 208.175 220.566 208.175C226.754 208.175 231.689 213.205 231.689 219.806C231.689 226.408 226.754 231.438 220.566 231.438C214.3 231.438 209.365 226.408 209.365 219.806Z" fill="white"/>
<path d="M251.909 239.931C251.909 240.536 252.394 241.025 252.997 241.025C254.675 241.025 258.129 241.025 262.17 241.025C271.022 241.025 276.74 235.838 276.74 228.215C276.74 222.714 273.842 219.413 266.4 216.191L265.147 215.641C260.212 213.519 258.88 212.34 258.88 210.611C258.88 208.568 260.604 207.389 263.581 207.389C265.52 207.389 268.557 207.389 270.168 207.389C270.771 207.389 271.257 206.899 271.257 206.295V199.681C271.257 199.077 270.771 198.587 270.168 198.587C268.744 198.587 266.062 198.587 262.954 198.587C254.102 198.587 248.149 203.853 248.149 211.24C248.149 216.663 251.439 220.12 258.567 223.107L260.29 223.814C264.677 225.701 265.852 226.8 265.852 228.687C265.852 230.966 264.207 232.224 261.309 232.224C259.145 232.224 254.974 232.224 252.998 232.224C252.396 232.224 251.909 232.713 251.909 233.318V239.931Z" fill="white"/>
<path d="M280.664 207.71C280.664 208.314 281.153 208.804 281.755 208.804H286.78C287.383 208.804 287.871 209.293 287.871 209.898V238.753C287.871 239.357 288.359 239.847 288.961 239.847H297.121C297.722 239.847 298.211 239.357 298.211 238.753V209.898C298.211 209.293 298.699 208.804 299.301 208.804H306.05C306.652 208.804 307.141 208.314 307.141 207.71V200.86C307.141 200.256 306.652 199.766 306.05 199.766H299.301C298.699 199.766 298.211 199.276 298.211 198.672V189.881C298.211 189.136 297.485 188.609 296.78 188.841L288.621 191.529C288.173 191.676 287.871 192.095 287.871 192.568V198.672C287.871 199.276 287.383 199.766 286.78 199.766H281.755C281.153 199.766 280.664 200.256 280.664 200.86V207.71Z" fill="white"/>
<path d="M351.614 229.488C351.876 228.96 351.638 228.329 351.108 228.076L343.614 224.502C343.024 224.22 342.323 224.524 342.048 225.12C340.276 228.954 336.441 231.438 332.084 231.438C325.817 231.438 320.882 226.329 320.882 219.806C320.882 213.283 325.817 208.175 332.084 208.175C335.981 208.175 339.364 210.103 341.25 213.263C341.576 213.809 342.27 214.044 342.825 213.737L350.087 209.723C350.614 209.432 350.808 208.766 350.491 208.255C346.736 202.216 339.835 198.587 332.084 198.587C319.786 198.587 309.994 208.018 309.994 219.806C309.994 231.595 319.786 241.025 332.162 241.025C340.637 241.025 348.107 236.559 351.614 229.488Z" fill="white"/>
<path d="M354.826 187.899C354.826 191.514 358.274 194.186 361.955 194.186C365.715 194.186 368.692 191.435 368.692 187.899C368.692 184.284 365.715 181.612 361.955 181.612C358.274 181.612 354.826 184.284 354.826 187.899ZM356.864 238.753C356.864 239.357 357.352 239.847 357.954 239.847H366.113C366.716 239.847 367.204 239.357 367.204 238.753V201.24C367.204 200.506 366.497 199.981 365.797 200.193L357.638 202.674C357.178 202.814 356.864 203.239 356.864 203.721V238.753Z" fill="white"/>
<path d="M361.913 181.615H348.829C348.227 181.615 347.739 182.104 347.739 182.708C347.739 183.313 348.227 183.802 348.829 183.802H361.913C362.515 183.802 363.003 183.313 363.003 182.708C363.003 182.104 362.515 181.615 361.913 181.615Z" fill="white"/>
<path d="M359.157 186.675H339.618C339.016 186.675 338.528 187.165 338.528 187.769V187.982C338.528 188.586 339.016 189.076 339.618 189.076H359.157C359.759 189.076 360.248 188.586 360.248 187.982V187.769C360.248 187.165 359.759 186.675 359.157 186.675Z" fill="white"/>
<path d="M362.458 191.93H346.103C345.501 191.93 345.013 192.42 345.013 193.024V193.073C345.013 193.677 345.501 194.167 346.103 194.167H362.458C363.06 194.167 363.548 193.677 363.548 193.073V193.024C363.548 192.42 363.06 191.93 362.458 191.93Z" fill="white"/>
<path d="M172.609 177.073C172.077 177.073 171.611 177.042 171.212 176.98C170.804 176.927 170.458 176.86 170.174 176.78V173.335C170.458 173.397 170.763 173.455 171.092 173.508C171.412 173.57 171.753 173.602 172.117 173.602C172.596 173.602 173.026 173.508 173.408 173.321C173.79 173.143 174.091 172.8 174.313 172.293C174.535 171.786 174.646 171.055 174.646 170.103V151.809H178.772V170.076C178.772 171.75 178.51 173.099 177.986 174.122C177.472 175.155 176.749 175.903 175.817 176.366C174.894 176.838 173.825 177.073 172.609 177.073ZM187.729 171.331H183.67V151.809H194.823V155.2H187.729V160.235H194.331V163.613H187.729V171.331ZM206.615 156.122C206.819 156.122 207.054 156.135 207.321 156.162C207.596 156.18 207.818 156.206 207.986 156.242L207.68 160.061C207.547 160.017 207.356 159.985 207.108 159.968C206.868 159.941 206.66 159.928 206.482 159.928C205.959 159.928 205.448 159.994 204.952 160.128C204.464 160.261 204.024 160.479 203.634 160.782C203.244 161.076 202.933 161.468 202.702 161.957C202.48 162.438 202.37 163.03 202.37 163.733V171.331H198.31V156.402H201.385L201.984 158.913H202.183C202.476 158.405 202.84 157.942 203.275 157.524C203.718 157.097 204.219 156.758 204.779 156.509C205.346 156.251 205.959 156.122 206.615 156.122ZM224.211 163.84C224.211 165.086 224.042 166.19 223.705 167.152C223.376 168.113 222.893 168.928 222.254 169.596C221.624 170.254 220.861 170.753 219.965 171.091C219.077 171.429 218.075 171.599 216.957 171.599C215.91 171.599 214.947 171.429 214.069 171.091C213.199 170.753 212.44 170.254 211.793 169.596C211.154 168.928 210.657 168.113 210.302 167.152C209.956 166.19 209.783 165.086 209.783 163.84C209.783 162.184 210.076 160.782 210.662 159.634C211.247 158.485 212.081 157.613 213.163 157.016C214.246 156.42 215.537 156.122 217.037 156.122C218.43 156.122 219.663 156.42 220.737 157.016C221.819 157.613 222.667 158.485 223.279 159.634C223.9 160.782 224.211 162.184 224.211 163.84ZM213.922 163.84C213.922 164.819 214.029 165.643 214.242 166.311C214.455 166.978 214.787 167.481 215.24 167.819C215.692 168.158 216.283 168.327 217.01 168.327C217.729 168.327 218.31 168.158 218.753 167.819C219.206 167.481 219.535 166.978 219.739 166.311C219.952 165.643 220.058 164.819 220.058 163.84C220.058 162.852 219.952 162.033 219.739 161.383C219.535 160.724 219.206 160.23 218.753 159.901C218.301 159.571 217.711 159.407 216.983 159.407C215.91 159.407 215.129 159.776 214.641 160.515C214.162 161.254 213.922 162.362 213.922 163.84ZM231.917 177.901C229.84 177.901 228.252 177.536 227.152 176.806C226.061 176.085 225.515 175.07 225.515 173.762C225.515 172.863 225.794 172.11 226.354 171.505C226.912 170.9 227.733 170.468 228.815 170.21C228.398 170.032 228.035 169.742 227.724 169.342C227.414 168.932 227.259 168.501 227.259 168.046C227.259 167.477 227.423 167.005 227.751 166.631C228.08 166.248 228.554 165.874 229.175 165.509C228.394 165.171 227.773 164.628 227.312 163.88C226.859 163.132 226.633 162.251 226.633 161.236C226.633 160.15 226.868 159.229 227.338 158.472C227.817 157.706 228.51 157.123 229.415 156.723C230.328 156.322 231.438 156.122 232.742 156.122C233.017 156.122 233.337 156.14 233.7 156.175C234.064 156.211 234.397 156.251 234.698 156.295C235.009 156.34 235.218 156.375 235.324 156.402H240.515V158.472L238.186 159.073C238.399 159.402 238.559 159.754 238.665 160.128C238.771 160.502 238.825 160.898 238.825 161.316C238.825 162.919 238.265 164.17 237.148 165.069C236.038 165.959 234.494 166.404 232.516 166.404C232.046 166.377 231.602 166.342 231.185 166.297C230.981 166.457 230.826 166.627 230.719 166.805C230.612 166.983 230.559 167.17 230.559 167.365C230.559 167.561 230.639 167.726 230.799 167.86C230.967 167.984 231.216 168.082 231.544 168.153C231.881 168.216 232.299 168.247 232.795 168.247H235.324C236.957 168.247 238.199 168.598 239.051 169.302C239.912 170.005 240.342 171.038 240.342 172.4C240.342 174.145 239.614 175.498 238.159 176.459C236.713 177.421 234.632 177.901 231.917 177.901ZM232.09 175.244C233.057 175.244 233.887 175.151 234.579 174.964C235.28 174.786 235.816 174.527 236.189 174.189C236.562 173.86 236.748 173.464 236.748 173.001C236.748 172.627 236.637 172.329 236.416 172.106C236.202 171.892 235.874 171.741 235.43 171.652C234.996 171.563 234.437 171.518 233.754 171.518H231.651C231.154 171.518 230.706 171.599 230.307 171.759C229.916 171.919 229.605 172.142 229.375 172.426C229.144 172.72 229.029 173.059 229.029 173.441C229.029 174.002 229.295 174.443 229.827 174.763C230.369 175.084 231.123 175.244 232.09 175.244ZM232.742 163.92C233.505 163.92 234.064 163.684 234.419 163.212C234.774 162.741 234.951 162.1 234.951 161.29C234.951 160.39 234.765 159.718 234.392 159.273C234.029 158.819 233.478 158.592 232.742 158.592C231.997 158.592 231.438 158.819 231.065 159.273C230.692 159.718 230.506 160.39 230.506 161.29C230.506 162.1 230.688 162.741 231.052 163.212C231.425 163.684 231.988 163.92 232.742 163.92Z" fill="#36A13B"/>
<defs>
<radialGradient id="paint0_radial_1440_9864" cx="0" cy="0" r="1" gradientTransform="matrix(14.4953 15.9431 -38.5759 35.6549 97.8652 222.055)" gradientUnits="userSpaceOnUse">
<stop stop-color="#36A13B" stop-opacity="0"/>
<stop offset="0.145095" stop-color="#36A13B" stop-opacity="0.15"/>
<stop offset="0.867238" stop-color="#36A13B"/>
</radialGradient>
<radialGradient id="paint1_radial_1440_9864" cx="0" cy="0" r="1" gradientTransform="matrix(-14.9629 -16.412 39.9323 -36.6129 84.3053 179.384)" gradientUnits="userSpaceOnUse">
<stop stop-color="#36A13B" stop-opacity="0"/>
<stop offset="0.133024" stop-color="#36A13B" stop-opacity="0.15"/>
<stop offset="0.867238" stop-color="#36A13B"/>
</radialGradient>
</defs>
</svg>
